<?xml version="1.0" encoding="utf-8"?>
<svg width="8in" height="6in" version="1.1" style="shape-rendering:geometricPrecision; text-rendering:geometricPrecision; image-rendering:optimizeQuality; fill-rule:evenodd; clip-rule:evenodd" viewBox="2128.298 181.132 3732.082 3588.684" xmlns="http://www.w3.org/2000/svg" xmlns:xlink="http://www.w3.org/1999/xlink">
  <defs>
    <style type="text/css">
   
    .str0 {stroke:#848688;stroke-width:3}
    .fil11 {fill:none;fill-rule:nonzero}
    .fil7 {fill:#96989A}
    .fil5 {fill:#C7C9CB}
    .fil13 {fill:#F37435}
    .fil12 {fill:#FFCC29}
    .fil6 {fill:#FEFEFE}
    .fil8 {fill:#848587;fill-rule:nonzero}
    .fil10 {fill:#848688;fill-rule:nonzero}
    .fil4 {fill:#373435;fill-rule:nonzero}
    .fil14 {fill:#F58634;fill-rule:nonzero}
    .fil9 {fill:#FEFEFE;fill-rule:nonzero}
    .fil2 {fill:url(#id0)}
    .fil1 {fill:url(#id1)}
    .fil3 {fill:url(#id2)}
    .fil0 {fill:url(#id3)}
   
  </style>
    <linearGradient id="id0" gradientUnits="userSpaceOnUse" x1="7065.15" y1="1389.45" x2="7236.49" y2="1218.11">
      <stop offset="0" style="stop-color:#64B074"/>
      <stop offset="1" style="stop-color:#98BD26"/>
    </linearGradient>
    <linearGradient id="id1" gradientUnits="userSpaceOnUse" x1="6440.12" y1="1620.81" x2="6735.08" y2="1325.85">
      <stop offset="0" style="stop-color:#209CBA"/>
      <stop offset="1" style="stop-color:#1B7387"/>
    </linearGradient>
    <linearGradient id="id2" gradientUnits="userSpaceOnUse" x1="6531.31" y1="1216.64" x2="6797" y2="950.957" xlink:href="#id1"/>
    <linearGradient id="id3" gradientUnits="userSpaceOnUse" x1="7060.18" y1="1834.44" x2="7194.5" y2="1700.12" xlink:href="#id1"/>
  </defs>
  <symbol id="Symbol6" viewBox="7060 1701 129 131">
    <path class="fil0" d="M7151 1701l-54 0c-35,0 -37,37 -37,37l0 52c0,44 39,42 39,42l47 0c49,0 42,-47 42,-47l0 -44c0,-39 -37,-39 -37,-39z"/>
  </symbol>
  <symbol id="Symbol2" viewBox="7060 1701 129 131">
    <path class="fil0" d="M7151 1701l-54 0c-35,0 -37,37 -37,37l0 52c0,44 39,42 39,42l47 0c49,0 42,-47 42,-47l0 -44c0,-39 -37,-39 -37,-39z"/>
  </symbol>
  <symbol id="Symbol7" viewBox="6456 1336 280 271">
    <path class="fil1" d="M6736 1507l0 -77c0,-104 -86,-95 -86,-95l-108 9c-104,9 -86,117 -86,117l0 72c-5,86 86,72 86,72l99 -5c86,-9 95,-95 95,-95z"/>
  </symbol>
  <symbol id="Symbol3" viewBox="7064 1219 164 167">
    <path class="fil2" d="M7181 1219l-69 0c-44,0 -47,47 -47,47l0 66c0,57 50,53 50,53l60 0c63,0 53,-60 53,-60l0 -57c0,-50 -47,-50 -47,-50z"/>
  </symbol>
  <symbol id="Symbol4" viewBox="6546 962 245 244">
    <path class="fil3" d="M6547 1084c0,0 -18,-113 95,-117l68 -5c0,0 81,-9 81,72l0 63c0,0 9,95 -77,99l-90 9c0,0 -77,9 -77,-59l0 -63z"/>
  </symbol>
  <symbol id="Symbol1" viewBox="6456 1336 280 271">
    <path class="fil1" d="M6736 1507l0 -77c0,-104 -86,-95 -86,-95l-108 9c-104,9 -86,117 -86,117l0 72c-5,86 86,72 86,72l99 -5c86,-9 95,-95 95,-95z"/>
  </symbol>
  <symbol id="Symbol8" viewBox="6546 962 245 244">
    <path class="fil3" d="M6547 1084c0,0 -18,-113 95,-117l68 -5c0,0 81,-9 81,72l0 63c0,0 9,95 -77,99l-90 9c0,0 -77,9 -77,-59l0 -63z"/>
  </symbol>
  <symbol id="Symbol5" viewBox="7064 1219 164 167">
    <path class="fil2" d="M7181 1219l-69 0c-44,0 -47,47 -47,47l0 66c0,57 50,53 50,53l60 0c63,0 53,-60 53,-60l0 -57c0,-50 -47,-50 -47,-50z"/>
  </symbol>
  <g id="Layer_x0020_1">
    <g id="_880697104">
      <g>
        <path class="fil5" d="M4021 272c926,0 1680,755 1680,1680 0,926 -755,1680 -1680,1680 -925,0 -1680,-755 -1680,-1680 0,-925 755,-1680 1680,-1680z"/>
        <path class="fil6" d="M4021 506c797,0 1446,650 1446,1446 0,797 -650,1446 -1446,1446 -797,0 -1446,-650 -1446,-1446 0,-797 650,-1446 1446,-1446z"/>
        <path class="fil7" d="M3261 397c179,-97 445,426 751,426 312,28 574,-505 750,-433 187,79 -56,613 135,852 172,262 753,134 806,316 55,196 -514,339 -582,637 -97,298 365,672 255,828 -119,165 -585,-191 -861,-58 -293,110 -298,704 -488,716 -203,10 -216,-577 -491,-709 -269,-161 -736,207 -864,65 -134,-153 316,-528 248,-826 -42,-311 -620,-447 -589,-635 36,-200 610,-82 801,-321 217,-226 -37,-764 129,-856z"/>
        <path class="fil5" d="M3307 469c126,-53 405,440 705,428 323,26 609,-483 726,-424 120,66 -92,591 105,818 181,269 757,175 784,303 23,135 -519,297 -574,592 -98,309 335,701 252,802 -91,102 -555,-221 -820,-80 -302,117 -339,699 -470,697 -137,-7 -174,-572 -449,-691 -280,-164 -758,171 -838,67 -80,-111 339,-492 260,-782 -46,-321 -606,-486 -575,-613 38,-132 596,-42 774,-284 222,-236 2,-777 121,-832z"/>
        <path class="fil8" d="M3014 1959c0,552 449,1001 1001,1001 552,0 1001,-449 1001,-1001 0,-552 -449,-1000 -1001,-1000 -552,0 -1001,449 -1001,1000zm1001 -990c546,0 990,444 990,990 0,546 -444,990 -990,990 -546,0 -990,-444 -990,-990 0,-546 444,-990 990,-990z"/>
        <path class="fil9" d="M4013 962c546,0 991,445 991,991 0,546 -445,991 -991,991 -546,0 -991,-445 -991,-991 0,-546 445,-991 991,-991z"/>
        <path class="fil10" d="M3543 1083c86,-20 247,10 470,90l8 3 -5 -7c-54,-75 -110,-138 -170,-192l-3 4c60,54 115,117 170,191l3 -4c-224,-80 -382,-110 -469,-91l-2 5z"/>
        <path class="fil10" d="M3069 2289c-8,-143 5,-275 37,-392 33,-120 88,-227 163,-320 77,-95 178,-177 299,-243 124,-68 274,-122 445,-160l0 -5c-239,-12 -436,14 -587,76 -152,63 -261,165 -325,303l5 2c63,-137 172,-238 322,-300 151,-63 348,-88 585,-76l0 -5c-172,38 -322,93 -447,161 -122,67 -223,149 -301,244 -76,93 -131,201 -164,322 -33,117 -45,250 -37,394l5 0z"/>
        <path class="fil10" d="M3793 2933c-27,-383 -23,-723 13,-1012 36,-298 107,-550 210,-749l4 -8 -7 4c-131,74 -244,159 -338,254 -97,98 -176,210 -234,331 -60,125 -100,265 -118,416 -19,155 -17,326 8,508l5 -1c-24,-182 -27,-352 -8,-507 19,-150 58,-289 118,-414 58,-121 136,-232 233,-330 93,-95 207,-180 337,-253l-4 -3c-103,200 -174,452 -211,750 -35,289 -40,630 -13,1013l5 0z"/>
        <path class="fil10" d="M4481 1078c-87,-20 -244,10 -468,90l3 4c54,-75 110,-137 169,-191l-3 -4c-60,54 -115,117 -170,191l-5 7 8 -3c223,-79 379,-110 465,-90l1 -5z"/>
        <path class="fil10" d="M4963 2276c8,-143 -5,-275 -37,-391 -33,-119 -89,-226 -165,-318 -77,-94 -179,-174 -301,-240 -124,-67 -274,-120 -446,-159l0 5c237,-12 433,14 584,76 150,62 258,163 321,300l5 -2c-64,-138 -173,-239 -324,-302 -151,-63 -348,-88 -586,-76l0 5c171,38 320,92 444,158 122,65 222,146 299,239 75,91 130,197 164,316 32,116 45,247 37,390l5 0z"/>
        <path class="fil10" d="M4307 2907c25,-358 9,-694 -47,-1000 -50,-274 -132,-522 -244,-738l-4 3c130,73 243,158 336,253 96,98 174,208 232,329 59,124 99,263 117,413 19,154 16,327 -8,509l5 -3c24,-182 27,-352 8,-507 -19,-150 -58,-289 -118,-414 -58,-121 -136,-232 -233,-330 -93,-95 -207,-180 -337,-253l-7 -4 4 8c111,215 193,463 243,736 56,305 72,641 47,999l5 0z"/>
        <path class="fil10" d="M3030 2182c84,236 291,370 449,441 200,90 409,120 537,118 155,-2 344,-50 506,-129 145,-71 344,-202 464,-427l-5 -2c-120,224 -317,354 -462,425 -161,78 -350,127 -504,129 -128,2 -336,-28 -535,-118 -157,-71 -362,-204 -446,-438l-5 2z"/>
        <path class="fil10" d="M3047 1692c-35,176 8,342 123,482 174,211 499,341 846,338 169,-1 334,-32 479,-90 148,-59 271,-144 355,-247 114,-139 157,-307 123,-488l-5 1c34,178 -8,346 -122,483 -84,102 -206,187 -353,245 -144,57 -309,88 -477,89 -346,2 -669,-127 -842,-337 -114,-138 -156,-303 -122,-477l-5 -1z"/>
        <path class="fil10" d="M3238 1328c-128,150 -159,312 -88,469 115,255 479,444 866,451 183,3 371,-44 530,-131 154,-86 270,-203 324,-331 34,-79 44,-158 29,-236 -16,-84 -60,-163 -131,-236l-4 4c70,72 114,150 130,233 15,77 5,155 -29,233 -115,268 -480,465 -849,459 -385,-7 -748,-195 -862,-448 -70,-155 -39,-315 88,-463l-4 -3z"/>
        <path class="fil10" d="M3508 1092c-196,141 -277,320 -222,490 34,105 121,200 243,267 132,71 298,109 483,108 186,-1 355,-48 487,-136 120,-80 202,-187 229,-303 19,-81 11,-161 -24,-233 -38,-77 -105,-141 -199,-190l-2 5c93,48 159,111 196,188 35,70 43,150 24,229 -50,208 -294,433 -712,435 -358,2 -648,-147 -721,-371 -55,-168 26,-344 220,-484l-3 -4z"/>
        <path class="fil10" d="M3729 1004c-92,56 -158,118 -196,185 -34,60 -44,124 -27,185 42,160 251,276 506,283 126,3 250,-28 349,-87 95,-57 157,-135 176,-219 14,-64 1,-129 -38,-187 -44,-65 -118,-121 -222,-166l-2 5c102,45 176,101 220,165 38,57 51,121 37,183 -40,176 -268,309 -520,302 -253,-7 -460,-121 -502,-279 -16,-60 -7,-121 27,-181 37,-66 108,-132 199,-188l-8 0z"/>
        <path class="fil10" d="M3752 1234c0,41 28,82 76,112 50,31 116,48 186,48 146,0 274,-75 274,-160 0,-41 -29,-80 -82,-109 -52,-29 -120,-45 -192,-45 -71,0 -137,16 -186,45 -49,29 -76,68 -76,109zm262 -149c146,0 269,68 269,149 0,83 -125,155 -269,155 -139,0 -256,-71 -256,-155 0,-84 113,-149 256,-149z"/>
        <polygon class="fil10" points="4010,1170 4015,1170 4015,966 4010,966 "/>
        <path class="fil10" d="M3006 1958c0,552 449,1000 1000,1000 552,0 1000,-449 1000,-1000 0,-552 -449,-1000 -1000,-1000 -551,0 -1000,449 -1000,1000zm1000 -990c546,0 990,444 990,990 0,546 -444,990 -990,990 -546,0 -990,-444 -990,-990 0,-546 444,-990 990,-990z"/>
        <path class="fil11 str0" d="M3006 1958c0,552 449,1000 1000,1000 552,0 1000,-449 1000,-1000 0,-552 -449,-1000 -1000,-1000 -551,0 -1000,449 -1000,1000zm1000 -990c546,0 990,444 990,990 0,546 -444,990 -990,990 -546,0 -990,-444 -990,-990 0,-546 444,-990 990,-990z"/>
        <path class="fil10" d="M4019 756l-15 0 0 -71 15 0 0 71zm31 31l0 118c0,5 -3,8 -5,8l-3 0 0 -11c0,-19 -7,-31 -18,-31l-24 0c-11,0 -18,12 -18,31l0 11 0 0c-2,0 -5,-4 -5,-8l0 -118c0,-5 3,-8 5,-8l1 0c2,13 8,21 17,21l24 0c9,0 15,-8 17,-21l4 0c2,0 5,4 5,8zm-46 115c0,-4 1,-7 1,-9l13 0c1,2 1,5 1,9l0 11 -15 0 0 -11zm15 105l-15 0 0 -71 15 0 0 71zm31 30l0 118c0,5 -3,8 -5,8l-3 0 0 -11c0,-19 -7,-31 -18,-31l-24 0c-11,0 -18,12 -18,31l0 11 0 0c-2,0 -5,-4 -5,-8l0 -118c0,-5 3,-8 5,-8l1 0c2,13 8,21 17,21l24 0c9,0 15,-8 17,-21l4 0c2,0 5,4 5,8zm-46 115c0,-4 1,-7 1,-9l13 0c1,2 1,5 1,9l0 11 -15 0 0 -11zm15 105l-15 0 0 -71 15 0 0 71zm31 31l0 118c0,5 -3,8 -5,8l-3 0 0 -11c0,-19 -7,-31 -18,-31l-24 0c-11,0 -18,12 -18,31l0 11 0 0c-2,0 -5,-3 -5,-8l0 -118c0,-5 3,-8 5,-8l1 0c2,13 8,21 17,21l24 0c9,0 15,-8 17,-21l4 0c2,0 5,4 5,8zm-46 115c0,-4 1,-7 1,-9l13 0c1,2 1,5 1,9l0 11 -15 0 0 -11zm15 110l-15 0 0 -77 15 0 0 77zm27 30l0 118c0,5 -3,8 -5,8l-3 0 0 -11c0,-19 -7,-31 -18,-31l-25 0c-11,0 -18,12 -18,31l0 11 0 0c-2,0 -5,-3 -5,-8l0 -118c0,-5 3,-8 5,-8l7 0c3,9 8,15 15,15l24 0c7,0 13,-6 15,-15l2 0c2,0 5,4 5,8zm-46 115c0,-4 0,-7 1,-9l13 0c1,2 1,5 1,9l0 11 -15 0 0 -11zm15 117c0,4 0,7 -1,9l-13 0c0,-2 -1,-5 -1,-9l0 -83 15 0 0 83zm-11 -1121c0,-4 1,-7 1,-9l13 0c1,2 1,5 1,9l0 11 -15 0 0 -11zm-23 11c-2,0 -5,-4 -5,-8l0 -118c0,-5 3,-8 5,-8l64 0c2,0 5,4 5,8l0 118c0,5 -3,8 -5,8l-3 0 0 -11c0,-19 -7,-31 -18,-31l-24 0c-11,0 -18,12 -18,31l0 11 0 0zm64 22c15,0 28,-14 28,-30l0 -118c0,-17 -12,-30 -28,-30l-64 0c-15,0 -28,14 -28,30l0 118c0,17 12,30 28,30l0 0 0 71 0 0c-15,0 -28,14 -28,31l0 118c0,17 12,31 28,31l0 0 0 71 0 0c-15,0 -28,14 -28,30l0 118c0,17 12,31 28,31l0 0 0 71 0 0c-15,0 -28,14 -28,31l0 118c0,17 12,30 28,30l0 0 0 77 -4 0c-15,0 -28,14 -28,30l0 118c0,17 12,31 28,31l0 0 0 83c0,19 7,31 18,31l25 0c11,0 18,-12 18,-31l0 -83 3 0c15,0 28,-14 28,-31l0 -118c0,-17 -12,-30 -27,-30l0 -77 3 0c15,0 28,-14 28,-30l0 -118c0,-17 -12,-31 -28,-31l-3 0 0 -71 3 0c15,0 28,-14 28,-31l0 -118c0,-17 -12,-30 -28,-30l-3 0 0 -71 3 0c15,0 28,-14 28,-31l0 -118c0,-17 -12,-31 -28,-31l-3 0 0 -71 3 0z"/>
        <path class="fil12" d="M3465 2569l1079 0c9,0 23,11 16,16 -48,34 -80,66 -66,88 5,7 -7,16 -16,16l-959 0c-9,0 -19,-8 -16,-16 9,-29 -13,-59 -54,-88 -7,-5 7,-16 16,-16z"/>
        <path class="fil13" d="M4487 2676c-1,2 -5,4 -9,4l-959 0c-3,0 -6,-2 -8,-4 -1,-1 -1,-1 -1,-1 10,-30 -8,-61 -53,-94 2,-2 5,-4 8,-4l1079 0c2,0 5,2 8,4 -40,29 -82,66 -65,95zm83 -98c-3,-9 -17,-17 -26,-17l-1079 0c-9,0 -23,8 -26,17 -2,5 0,11 5,14 41,29 58,55 51,78 -2,6 -1,11 3,16 5,6 13,11 21,11l959 0c9,0 20,-6 24,-13 3,-5 3,-11 0,-16 -6,-9 -1,-30 63,-76 5,-3 7,-9 5,-14z"/>
        <path class="fil12" d="M3555 2720l901 0c17,0 31,11 31,24l0 33c0,13 -14,24 -31,24l-901 0c-17,0 -31,-11 -31,-24l0 -33c0,-13 14,-24 31,-24z"/>
        <path class="fil13" d="M4478 2777c0,8 -10,16 -23,16l-901 0c-12,0 -23,-7 -23,-16l0 -33c0,-8 10,-16 23,-16l901 0c12,0 23,7 23,16l0 33zm-23 -65l-901 0c-22,0 -39,15 -39,32l0 33c0,18 18,32 39,32l901 0c22,0 39,-14 39,-32l0 -33c0,-18 -18,-32 -39,-32z"/>
        <path class="fil12" d="M3554 2837l901 0c17,0 31,9 31,19l0 27c0,11 -14,19 -31,19l-901 0c-17,0 -31,-9 -31,-19l0 -27c0,-11 14,-19 31,-19z"/>
        <path class="fil13" d="M4477 2883c0,4 -9,11 -22,11l-901 0c-14,0 -23,-7 -23,-11l0 -27c0,-4 9,-11 23,-11l901 0c7,0 13,2 17,4 3,2 5,5 5,7l0 27zm4 -48c-7,-4 -17,-7 -26,-7l-901 0c-22,0 -39,12 -39,28l0 27c0,15 17,28 39,28l901 0c22,0 39,-12 39,-28l0 -27c0,-8 -5,-16 -13,-21z"/>
        <path class="fil12" d="M3807 2938l393 0c13,0 24,44 24,99 -176,7 -107,99 -120,99l-194 0c-13,0 46,-91 -127,-99 0,-54 11,-99 24,-99z"/>
        <path class="fil13" d="M4105 3067c-16,21 -11,45 -8,59 0,0 0,0 0,1l-179 0c0,-1 0,-1 0,-2 2,-13 5,-37 -13,-58 -19,-23 -56,-35 -113,-38 1,-49 11,-79 16,-83l392 0c6,3 15,33 16,83 -57,3 -94,16 -111,39zm96 -138l-393 0c-26,0 -32,67 -32,107l0 8 8 0c55,2 92,14 108,33 13,15 11,33 9,45 -1,7 -2,13 2,17 2,2 5,4 8,4l194 0c3,0 6,-1 8,-4 4,-4 2,-10 1,-17 -3,-12 -7,-29 5,-45 15,-19 51,-30 107,-33l8 0 0 -8c0,-40 -7,-107 -32,-107z"/>
        <path class="fil12" d="M4007 2531l-155 0c8,-29 26,-48 55,-55 28,-76 -46,-64 -50,-181 -21,-143 112,-205 137,-328 -85,-58 -82,-127 13,-180 95,53 98,122 13,180 25,123 157,185 137,328 -4,117 -78,106 -50,181 29,8 47,26 55,55l-155 0z"/>
        <path class="fil13" d="M3864 2522c8,-20 23,-33 45,-39l4 -1 2 -4c15,-42 2,-61 -14,-83 -15,-20 -33,-45 -35,-101l0 0 0 0c-11,-80 27,-133 67,-189 29,-40 59,-82 70,-136l1 -5 -5 -3c-39,-27 -59,-55 -57,-83 1,-28 24,-56 66,-80 42,24 64,51 66,80 1,28 -19,57 -57,83l-5 3 1 6c11,53 41,95 70,136 40,56 78,109 67,189l0 0 0 0c-2,56 -20,81 -35,101 -16,22 -30,41 -14,83l2 4 4 1c22,6 37,19 45,39l-143 0 -143 0zm306 6c-8,-30 -27,-50 -56,-59 -10,-31 -2,-44 13,-64 16,-22 36,-49 38,-111l0 1c13,-87 -29,-145 -70,-201 -27,-38 -55,-77 -66,-124 40,-29 61,-61 60,-94 -2,-35 -29,-69 -78,-96l-4 -2 -4 2c-50,28 -77,61 -78,96 -2,33 20,65 60,94 -11,47 -39,87 -66,125 -40,56 -82,115 -70,201l0 -1c2,61 22,89 38,111 15,20 23,33 13,64 -29,9 -48,29 -56,59l-3 11 11 0 155 0 155 0 11 0 -3 -11z"/>
        <path class="fil13" d="M4557 2528c-61,16 -110,-59 -110,-205 0,-146 90,-348 86,-310 -4,45 -32,146 15,275 41,112 116,213 9,240z"/>
        <path class="fil12" d="M3907 3172l201 0c9,0 37,50 37,109 0,59 -7,107 -16,107 -43,0 -82,115 -125,115 -42,0 -88,-115 -130,-115 -9,0 -16,-48 -16,-107 0,-59 40,-109 49,-109z"/>
        <path class="fil13" d="M4126 3380c-25,2 -45,31 -66,61 -18,25 -39,54 -56,54 -17,0 -39,-29 -58,-54 -23,-30 -45,-58 -68,-60 -4,-7 -10,-40 -10,-99 0,-53 34,-96 41,-101l198 0c8,6 30,50 30,101 0,59 -7,92 -11,99zm-18 -217l-201 0c-18,0 -57,60 -57,118 0,53 4,115 24,115 17,0 39,29 58,54 24,31 47,61 72,61 26,0 47,-30 69,-61 18,-25 38,-54 56,-54 20,0 24,-63 24,-115 0,-56 -27,-118 -45,-118z"/>
      </g>
    </g>
  </g>
</svg>